<?xml version="1.0" encoding="UTF-8"?>
<svg version="1.1" xmlns="http://www.w3.org/2000/svg" width="1024" height="1024">
<path d="M0 0 C2.2957542 -0.00258695 4.59150795 -0.00560103 6.88726109 -0.0090034 C13.17363524 -0.01703788 19.45999796 -0.01886098 25.74637663 -0.01960087 C31.83734106 -0.02126673 37.92829922 -0.02758904 44.01926053 -0.03367928 C60.32536323 -0.04969534 76.63146495 -0.05563759 92.93757411 -0.06042803 C100.66015676 -0.06276843 108.38273868 -0.06637156 116.10532076 -0.07012341 C142.57056805 -0.08295514 169.03581493 -0.09367454 195.50106525 -0.09712601 C197.16059355 -0.09734763 198.82012185 -0.09756942 200.47965015 -0.09779136 C202.14304879 -0.09801199 203.80644743 -0.09823248 205.46984607 -0.09845281 C208.8065728 -0.09889534 212.14329952 -0.09934246 215.48002625 -0.09979248 C216.30733273 -0.09990187 217.13463921 -0.10001126 217.98701559 -0.10012397 C244.79640338 -0.10375245 271.6057641 -0.11966657 298.41514152 -0.14298284 C326.79828048 -0.16762244 355.18140396 -0.18130076 383.56455392 -0.18249393 C386.6850158 -0.18266536 389.80547768 -0.18288078 392.92593956 -0.18312836 C393.69421487 -0.18318413 394.46249018 -0.18323989 395.25404656 -0.18329735 C407.57540252 -0.1844442 419.89673051 -0.19543482 432.21807705 -0.21001541 C444.62097266 -0.22443784 457.02383272 -0.22758514 469.42673443 -0.21957543 C476.13549257 -0.21553334 482.84414601 -0.21652582 489.55289841 -0.23063278 C495.71004687 -0.24346073 501.86703263 -0.24209689 508.02418115 -0.23004207 C510.23618497 -0.22810037 512.44820069 -0.23109163 514.66018788 -0.23988643 C562.29918712 -0.41710701 604.78158279 11.86894103 639.41435242 45.76544189 C666.43766126 72.88787169 682.4096029 112.14953798 682.55114222 150.39713797 C682.54937274 151.25791375 682.54760327 152.11868953 682.54578018 153.00554943 C682.54885913 154.42315723 682.54885913 154.42315723 682.55200028 155.86940357 C682.55763777 159.02431277 682.55621707 162.17917787 682.55479431 165.33409119 C682.55737983 167.62384412 682.5603935 169.9135966 682.56379771 172.20334846 C682.57184931 178.4870297 682.57365626 184.77069951 682.57439518 191.0543853 C682.5760585 197.13847768 682.58237886 203.22256376 682.58847359 209.30665301 C682.60450747 225.60109155 682.61043428 241.89552913 682.61522234 258.18997414 C682.6175613 265.90553971 682.62116432 273.62110453 682.62491772 281.33666952 C682.63775204 307.7715859 682.64847043 334.20650188 682.65192032 360.64142132 C682.65214195 362.29982771 682.65236373 363.9582341 682.65258567 365.6166405 C682.65280631 367.27895309 682.65302679 368.94126568 682.65324712 370.60357827 C682.65368966 373.93821315 682.65413678 377.27284803 682.65458679 380.60748291 C682.65469618 381.43427397 682.65480557 382.26106503 682.65491828 383.11291036 C682.65854612 409.90083528 682.67445647 436.6887331 682.69777716 463.47664764 C682.72241387 491.8283512 682.73609497 520.18003927 682.73728824 548.53175384 C682.73745968 551.64859347 682.7376751 554.76543309 682.73792267 557.88227272 C682.73797844 558.64967181 682.73803421 559.41707089 682.73809166 560.20772449 C682.73923888 572.51921466 682.7502329 584.83067686 682.76480972 597.1421576 C682.77922863 609.5353202 682.78238145 621.92844721 682.77436975 634.3216159 C682.77032607 641.02617878 682.77132742 647.73063687 682.78542709 654.43519402 C682.79824631 660.58747546 682.79689867 666.73959401 682.78483638 672.89187548 C682.78289317 675.10327824 682.78589315 677.31469287 682.79468074 679.52607902 C682.96131801 724.34126523 671.85093201 766.00728499 640.41435242 799.14044189 C639.51974304 800.09950439 638.62513367 801.05856689 637.70341492 802.04669189 C611.57352928 829.51155125 573.55677992 844.85173603 535.88736477 846.23310891 C533.34774926 846.26939643 530.80988999 846.27701066 528.27002335 846.27186966 C527.3069139 846.27392229 526.34380445 846.27597493 525.35150987 846.27808976 C522.14126342 846.28372044 518.93106042 846.2823074 515.72080994 846.28088379 C513.38894596 846.28346969 511.05708242 846.28648348 508.72521949 846.28988719 C502.99941375 846.29709159 497.27361916 846.29965854 491.54780922 846.30021625 C484.68473609 846.30113323 477.8216715 846.3078107 470.95860207 846.31456307 C454.37344546 846.33059192 437.7882898 846.33652303 421.20312684 846.34131182 C413.3497964 846.34365113 405.49646669 846.34725416 397.64313682 846.3510072 C370.73533452 846.36384062 343.82753262 846.37455944 316.91972733 846.3780098 C315.23188559 846.37823142 313.54404385 846.37845321 311.85620211 846.37867515 C310.16439318 846.37889578 308.47258424 846.37911627 306.78077531 846.3793366 C303.38698721 846.37977914 299.99319911 846.38022625 296.59941101 846.38067627 C295.75795441 846.38078566 294.91649781 846.38089505 294.04954253 846.38100776 C266.78328278 846.38463602 239.51704966 846.40054842 212.25080011 846.42386663 C183.39143184 846.44850194 154.53207877 846.46218437 125.67269969 846.46337771 C122.5002675 846.46354915 119.32783532 846.46376458 116.15540314 846.46401215 C114.983777 846.4640958 114.983777 846.4640958 113.78848165 846.46418114 C101.25667621 846.46532843 88.72489825 846.47632295 76.19310207 846.4908992 C63.57938082 846.50531621 50.96569453 846.50847197 38.3519673 846.50045922 C31.52790772 846.49641494 24.70394533 846.49741981 17.87989616 846.51151657 C11.61848061 846.52433213 5.35722513 846.52299128 -0.90419045 846.51092586 C-3.15526693 846.50898204 -5.40635506 846.51198554 -7.65741524 846.52077022 C-54.53254792 846.69194444 -94.51994155 833.97330448 -128.58564758 801.14044189 C-129.14179749 800.61490723 -129.69794739 800.08937256 -130.27095032 799.5479126 C-134.72968758 795.23942142 -138.43525014 790.6268482 -142.02314758 785.57794189 C-142.58735413 784.78565186 -143.15156067 783.99336182 -143.73286438 783.17706299 C-166.35098932 751.01727096 -173.09632678 715.18348654 -172.96659851 676.45941162 C-172.97006498 674.16668683 -172.97483612 671.8739637 -172.98078024 669.58124399 C-172.99318403 663.3496933 -172.98716878 657.11828227 -172.97782159 650.88673139 C-172.97169158 644.83470049 -172.97975112 638.78269744 -172.98726369 632.73067211 C-173.00298302 619.60506911 -173.001723 606.47951019 -172.99302695 593.3539031 C-172.98545466 581.86687655 -172.98352206 570.37986607 -172.98709488 558.89283752 C-172.98732403 558.12833394 -172.98755319 557.36383036 -172.98778929 556.57616 C-172.98872344 553.47212301 -172.98967865 550.36808602 -172.99066858 547.26404905 C-172.99982793 518.19667408 -172.99155327 489.12932704 -172.97537789 460.06195638 C-172.96114304 434.28585717 -172.96241701 408.50980244 -172.97676086 382.73370361 C-172.99285465 353.71657871 -172.99917813 324.69947843 -172.98992407 295.68234968 C-172.98896205 292.58424855 -172.98802352 289.48614741 -172.98709488 286.38804626 C-172.98685765 285.62531799 -172.98662041 284.86258971 -172.98637599 284.07674845 C-172.98297589 272.60214862 -172.98693132 261.1275667 -172.99453354 249.65296936 C-173.00314236 236.59460592 -173.00090104 223.5362931 -172.98469131 210.47793591 C-172.97670203 203.82392939 -172.97365789 197.16999295 -172.98363876 190.51598167 C-172.99265794 184.41047128 -172.98753527 178.30513311 -172.97170611 172.19963807 C-172.96838862 170.00545074 -172.96998283 167.81124849 -172.97733347 165.61707097 C-173.11756174 120.23385543 -161.16761099 79.60624172 -129.58564758 46.14044189 C-128.91275696 45.40309814 -128.23986633 44.66575439 -127.54658508 43.90606689 C-94.24449971 8.73307785 -46.18063167 -0.02088275 0 0 Z " fill="#0F0F0F" transform="translate(257.5856475830078,88.85955810546875)"/>
<path d="M0 0 C44.75907198 -0.05074929 89.51814401 -0.09914237 134.27723694 -0.12702942 C135.27181066 -0.12765068 135.27181066 -0.12765068 136.28647679 -0.12828448 C150.69829115 -0.13726439 165.11010583 -0.14557477 179.52192098 -0.15319599 C186.59005351 -0.15693781 193.65818595 -0.1608275 200.72631836 -0.16479492 C201.42966121 -0.1651872 202.13300405 -0.16557948 202.85766032 -0.16598364 C225.6317001 -0.17875471 248.40571747 -0.20127892 271.1797437 -0.22889166 C295.25880837 -0.25803351 319.337859 -0.27599676 343.41694075 -0.28226548 C357.83347795 -0.28637746 372.24995077 -0.29935502 386.66646815 -0.3237494 C396.55852523 -0.33963309 406.45054914 -0.34439439 416.34261804 -0.34050413 C422.04589365 -0.3385867 427.74905694 -0.34148228 433.45231247 -0.35761642 C438.68317338 -0.37230546 443.91384732 -0.37289435 449.14471716 -0.36269668 C451.02791808 -0.36143788 452.91113107 -0.36516667 454.79430854 -0.37464955 C499.37669823 -0.58592579 539.43767929 17.94872722 571 49 C604.13493025 82.03747457 620.32095651 130.66408102 620.5625 176.6875 C620.516509 210.05374931 612.29401232 241.92145662 598 272 C597.65388672 272.72944824 597.30777344 273.45889648 596.95117188 274.21044922 C587.17992567 294.42506246 573.8878684 313.44444706 558.64941406 329.91259766 C558.13726475 330.46629343 557.62511543 331.0199892 557.09744644 331.59046364 C550.31890649 338.86560873 543.27037755 345.87384295 536.234375 352.8984375 C534.74596874 354.38751952 533.25771076 355.87674977 531.76959229 357.36611938 C528.67516163 360.46201195 525.57896131 363.55612027 522.48144531 366.64892578 C518.52870226 370.59594733 514.5805009 374.54747678 510.63360214 378.50034142 C507.57094477 381.56662401 504.50589537 384.63050664 501.44013214 387.69368362 C499.98347023 389.14968299 498.52753819 390.60641297 497.07238007 392.06391525 C495.03732838 394.10152867 492.99906081 396.13587234 490.95996094 398.16943359 C490.37172546 398.7596933 489.78348999 399.349953 489.1774292 399.95809937 C486.36770193 402.75382401 483.5182511 405.43666828 480.49758911 408.00340271 C473.69104692 413.90037738 467.441603 420.41060047 461.07861328 426.77612305 C459.57350664 428.27823424 458.06819621 429.78014126 456.56269836 431.28186035 C452.49255435 435.34320507 448.42562678 439.4077557 444.35956049 443.47318244 C441.81860392 446.01342686 439.27693608 448.55295736 436.73501205 451.09223366 C427.86671242 459.95129742 419.00098411 468.81292502 410.13769531 477.67700195 C401.87380314 485.9414963 393.60433426 494.20038144 385.33226407 502.45668954 C378.22623153 509.54966334 371.12404255 516.64647003 364.02485645 523.74629623 C359.78619384 527.98521407 355.54598518 532.2225569 351.30191422 536.45606041 C347.31661679 540.43170353 343.33611284 544.41208325 339.35928917 548.39620209 C337.89767114 549.85886888 336.43433548 551.31982154 334.96918297 552.77894783 C332.97319187 554.76725821 330.98343009 556.76159952 328.99514771 558.75761414 C328.41111526 559.33650302 327.82708281 559.91539191 327.22535241 560.51182288 C323.08921982 564.68370911 321.21038445 567.10653991 320.5625 572.9375 C320.6351038 576.47528493 320.98293998 576.97889945 323.375 579.9375 C327.94398222 583.5274146 331.68875046 583.15226458 337.31387329 583.15821838 C338.29155115 583.16315636 339.26922902 583.16809434 340.27653348 583.17318195 C343.5731885 583.188617 346.86982396 583.19693379 350.16650391 583.20532227 C352.52145054 583.21489607 354.87639544 583.22490585 357.2313385 583.23532104 C363.64216157 583.26243009 370.05299205 583.2834071 376.46384096 583.30332303 C382.47948943 583.32246595 388.49511711 583.34709644 394.51074712 583.37124526 C406.42805041 583.41893667 418.34536553 583.46219665 430.26269531 583.50268555 C441.8411552 583.5420326 453.41960456 583.58345692 464.99804688 583.62768555 C465.71141337 583.63040982 466.42477987 583.63313409 467.15976353 583.63594092 C470.73841542 583.64962026 474.31706716 583.66334056 477.89571881 583.67708123 C507.59712459 583.79107033 537.29855343 583.89706076 567 584 C567 602.15 567 620.3 567 639 C512.0343865 639.06787253 457.06878308 639.12155768 402.10313595 639.15319599 C395.60838939 639.15694794 389.11364292 639.16083092 382.61889648 639.16479492 C381.32595357 639.16558185 380.03301066 639.16636878 378.70088766 639.16717956 C357.78803061 639.18022008 336.87519839 639.20386645 315.96235605 639.23145839 C294.49090023 639.25955029 273.01945739 639.27618426 251.54798394 639.28226548 C238.30762253 639.28637407 225.06733133 639.29933314 211.82699154 639.3237494 C202.73759888 639.33965332 193.64824233 639.34438984 184.55883678 639.34050413 C179.32112068 639.33858983 174.08352695 639.34144611 168.84583282 639.35761642 C164.03799218 639.37235021 159.23035475 639.37286614 154.42250422 639.36269668 C152.69539017 639.36144215 150.96826277 639.36513267 149.24117448 639.37464955 C102.58972474 639.61648803 61.77242012 619.90877161 28.625 587.875 C24.09454112 583.17926687 19.9704963 578.17339945 16 573 C15.54608887 572.41138184 15.09217773 571.82276367 14.62451172 571.21630859 C-5.58889687 544.67379478 -19.83996623 511.40607126 -23 478 C-23.10957031 476.97132813 -23.21914062 475.94265625 -23.33203125 474.8828125 C-23.6581153 471.25675782 -23.85983396 467.63693996 -24 464 C-24.03399902 463.16774902 -24.06799805 462.33549805 -24.10302734 461.47802734 C-25.25714384 428.51247647 -18.22885788 396.70873783 -4 367 C-3.64180176 366.24783203 -3.28360352 365.49566406 -2.91455078 364.72070312 C4.01928864 350.38971052 12.80044494 336.95322281 23.76953125 325.37109375 C25.52071461 323.50950303 27.16904066 321.62446953 28.82128906 319.67822266 C34.28270289 313.4285808 40.21852384 307.63762754 46.08984375 301.77734375 C47.36119407 300.50531833 48.63239604 299.23314461 49.90345764 297.96083069 C52.55698335 295.30583772 55.21229094 292.65264357 57.86889648 290.00073242 C61.25566535 286.61966022 64.63792393 283.23411742 68.01885128 279.84720516 C70.63973018 277.22269432 73.26300892 274.60059256 75.88699532 271.97918892 C77.13432544 270.73252079 78.38092731 269.48512352 79.62675285 268.23695183 C85.29524253 262.56012882 90.93878952 256.94403228 97.04420471 251.7334137 C101.33465254 247.93080661 105.30982294 243.78914474 109.34375 239.71875 C110.32176419 238.73631622 111.30008251 237.75418512 112.27868652 236.77233887 C115.35531395 233.68439429 118.42796436 230.59251186 121.5 227.5 C125.06553903 223.91069537 128.63277928 220.32311492 132.20429993 216.73976135 C133.61758629 215.32008843 135.02777111 213.89733001 136.43786621 212.4744873 C140.84645435 208.04924689 145.31111514 203.79222568 150.05041504 199.72473145 C153.72664603 196.47249503 157.1437096 192.9573258 160.59375 189.46875 C161.38471069 188.67400269 162.17567139 187.87925537 162.99060059 187.0604248 C165.49619523 184.54271568 167.99850858 182.02178554 170.5 179.5 C173.7991168 176.17411811 177.10164374 172.85167664 180.40625 169.53125 C181.14919312 168.78000854 181.89213623 168.02876709 182.65759277 167.25476074 C183.37193481 166.53711548 184.08627686 165.81947021 184.82226562 165.08007812 C185.43767212 164.45943481 186.05307861 163.8387915 186.68713379 163.19934082 C188.66992451 161.31387397 190.69208896 159.52220359 192.76179504 157.73423767 C197.00601922 154.04128604 201.00877677 150.14593323 204.98901367 146.17211914 C205.74292892 145.42316879 206.49684418 144.67421844 207.27360535 143.90257263 C209.74114615 141.44951536 212.20488629 138.99268958 214.66796875 136.53515625 C215.51493128 135.6910211 216.36189381 134.84688595 217.23452187 133.97717094 C221.71040818 129.51621564 226.18345595 125.0524377 230.65405273 120.58618164 C235.26049714 115.9852348 239.87615573 111.39364905 244.49402905 106.80417728 C248.05676087 103.26009516 251.61274184 99.70929757 255.16692543 96.15664482 C256.86562923 94.46095918 258.56682373 92.76776475 260.27058983 91.0771656 C262.65395176 88.71092383 265.0275968 86.3353246 267.39916992 83.95727539 C268.09798279 83.26767731 268.79679565 82.57807922 269.51678467 81.86758423 C274.24655634 77.09738872 279.17729991 71.91865043 280.59375 65.171875 C280.54734375 63.97304688 280.54734375 63.97304688 280.5 62.75 C280.48453125 61.53570312 280.48453125 61.53570312 280.46875 60.296875 C279.89759583 57.49821957 278.94554406 56.07402338 277 54 C274.12960481 53.0432016 272.33190438 52.87086493 269.35169697 52.8613348 C268.39127343 52.85586036 267.4308499 52.85038591 266.44132262 52.84474558 C265.38394132 52.84376747 264.32656001 52.84278936 263.23713684 52.84178162 C261.55495191 52.83437465 261.55495191 52.83437465 259.83878344 52.82681805 C256.06155053 52.81139674 252.28433468 52.80306988 248.50708008 52.79467773 C245.80716067 52.78565284 243.10724756 52.77513661 240.40733337 52.76467896 C234.58460515 52.74290903 228.76187462 52.72476643 222.93912697 52.70907402 C214.52036882 52.6863801 206.10163587 52.65823661 197.68289908 52.62875474 C184.02469449 52.58107298 170.3664796 52.53781037 156.70825195 52.49731445 C143.43903807 52.4579625 130.16983335 52.416537 116.90063477 52.37231445 C116.08298615 52.36959018 115.26533753 52.36686591 114.42291168 52.36405908 C110.32108795 52.35037965 106.21926435 52.33665937 102.11744082 52.32291877 C68.07831183 52.2089448 34.03916457 52.10294936 0 52 C0 34.84 0 17.68 0 0 Z " fill="#FEFEFE" transform="translate(229,195)"/>
<path d="M0 0 C1.10794922 0.08314453 1.10794922 0.08314453 2.23828125 0.16796875 C8.7511625 1.88188487 13.42010987 7.25807986 18.01905823 11.88336182 C18.73527861 12.59575665 19.45149899 13.30815149 20.18942302 14.04213405 C22.58230863 16.42472088 24.96800684 18.81437418 27.35375977 21.20410156 C29.07024158 22.91623518 30.78714056 24.62795065 32.50442505 26.33927917 C36.68025221 30.5031067 40.85133617 34.67164755 45.01999468 38.84264907 C48.40970892 42.23414856 51.801189 45.62387247 55.19392204 49.01235199 C55.67735371 49.49518846 56.16078537 49.97802494 56.65886648 50.47549282 C57.64106245 51.456477 58.62325959 52.43746001 59.60545789 53.41844186 C68.81038049 62.61249523 78.00878269 71.81305064 87.20522075 81.01558957 C95.61089015 89.42642705 104.02474092 97.8290252 112.44249547 106.22776607 C121.09415361 114.86003244 129.74022229 123.49786087 138.38031238 132.14170623 C143.22779542 136.99109935 148.0774422 141.83827942 152.93295479 146.67963409 C157.49946631 151.23296453 162.05807107 155.79411484 166.61146927 160.36055946 C168.28220136 162.03365724 169.95548751 163.70420912 171.63152504 165.37199211 C173.92234541 167.65234329 176.20368428 169.94178704 178.48292542 172.23370361 C179.14518444 172.88858835 179.80744347 173.5434731 180.48977095 174.21820283 C186.74867756 180.55034989 191.6875 186.62743337 191.6875 195.8125 C189.27723631 204.24842291 182.63370256 209.95130831 176.52843571 215.93984318 C174.76593443 217.73271407 173.12955496 219.58166735 171.49815369 221.49375916 C167.58675669 225.98931677 163.4349474 230.20572473 159.21704102 234.41235352 C157.991203 235.64082001 157.991203 235.64082001 156.74060059 236.894104 C154.06003185 239.57904517 151.37585579 242.2603456 148.69140625 244.94140625 C146.81470872 246.81877814 144.93815943 248.69629729 143.06175232 250.57395935 C139.13728249 254.50024185 135.21072429 258.42442653 131.28295898 262.34741211 C126.76007116 266.86485906 122.2407967 271.38589682 117.72338158 275.90881592 C113.82521059 279.81154384 109.92507059 283.71229601 106.0233168 287.61144203 C103.70152431 289.93168589 101.38058911 292.25277427 99.06103706 294.57525826 C96.47222882 297.16662072 93.88021118 299.75473114 91.28735352 302.34204102 C90.53230026 303.0991185 89.77724701 303.85619598 88.99931335 304.63621521 C57.02908452 336.48055045 16.49137086 357.83638767 -29.3125 358.1875 C-67.56367148 357.92384512 -102.86556845 342.77395673 -129.82641602 315.6652832 C-156.7170855 287.66706871 -166.86847814 249.91375379 -166.52734375 211.95703125 C-166.33792488 203.03081391 -165.28954328 194.51071205 -163.3125 185.8125 C-163.14621094 185.07418945 -162.97992188 184.33587891 -162.80859375 183.57519531 C-154.37625868 147.51915518 -133.73773878 121.23193302 -108.125 95.5 C-107.28138916 94.65163574 -106.43777832 93.80327148 -105.56860352 92.92919922 C-101.96260347 89.33275852 -98.35635624 85.79391859 -94.48046875 82.48828125 C-88.60485655 77.4378583 -83.25354858 71.82097969 -77.8125 66.3125 C-65.50942616 53.85695372 -65.50942616 53.85695372 -59.21679688 48.49414062 C-55.40025394 45.12383963 -51.88065917 41.44154926 -48.3125 37.8125 C-43.44663891 32.86360374 -38.54247756 28.08575734 -33.27734375 23.56347656 C-29.06580851 19.81035395 -25.21095402 15.67123613 -21.3125 11.59765625 C-15.51435589 5.67494264 -8.83369537 -0.80861115 0 0 Z " fill="#FBC01A" transform="translate(421.3125,432.1875)"/>
<path d="M0 0 C0.66402832 0.18191895 1.32805664 0.36383789 2.01220703 0.55126953 C32.22509542 8.97174826 59.40529357 29.6302813 75.19921875 56.73828125 C75.79347656 57.81464844 76.38773438 58.89101563 77 60 C77.60457031 61.08667969 78.20914062 62.17335938 78.83203125 63.29296875 C96.90757245 97.51441822 98.31542792 137.47961359 87.53564453 174.20947266 C75.89244866 211.82433787 52.80153931 239.48921897 25.27587891 266.68823242 C24.76171417 267.19799118 24.24754944 267.70774994 23.71780396 268.23295593 C22.30260266 269.63563906 20.88478126 271.03567726 19.46679688 272.43554688 C16.94984328 274.96252845 16.94984328 274.96252845 14.79882812 277.83007812 C14.20521484 278.54615234 13.61160156 279.26222656 13 280 C12.34 280 11.68 280 11 280 C10.79043167 280.5339035 10.58086334 281.06780701 10.36494446 281.6178894 C8.46380774 284.93576647 5.85008902 287.43636708 3.16088867 290.11376953 C2.56390671 290.71586243 1.96692474 291.31795532 1.35185242 291.93829346 C-0.62096275 293.92499678 -2.60110905 295.90419477 -4.58203125 297.8828125 C-5.95747091 299.26213933 -7.3326865 300.64168963 -8.70768738 302.02145386 C-11.59021532 304.91144223 -14.47658709 307.79752561 -17.36547852 310.68115234 C-21.06618278 314.37606044 -24.75539512 318.08221014 -28.44157887 321.79159737 C-31.2785101 324.6432628 -34.12234062 327.4879686 -36.96820641 330.33071518 C-38.33129647 331.69431855 -39.69202515 333.06028667 -41.05033302 334.42865372 C-42.95070136 336.34136338 -44.86037385 338.24428052 -46.77270508 340.14501953 C-47.3313324 340.71129059 -47.88995972 341.27756165 -48.46551514 341.86099243 C-52.84847786 346.18546974 -56.59733405 348.25871898 -62.75 348.5 C-71.9515258 348.19399689 -78.51313251 340.93463222 -84.6328125 334.6953125 C-85.31374969 334.01250214 -85.99468689 333.32969177 -86.69625854 332.62619019 C-88.12315207 331.19262558 -89.54646984 329.75549356 -90.96630859 328.31494141 C-93.11954969 326.13052921 -95.28328642 323.95697827 -97.44921875 321.78515625 C-98.84437428 320.38082826 -100.23892595 318.97590005 -101.6328125 317.5703125 C-102.26841095 316.93046417 -102.9040094 316.29061584 -103.55886841 315.63137817 C-106.44581816 312.69903957 -109.24402148 309.74065222 -111.89836121 306.59568787 C-117.35752214 300.3363347 -123.32614474 294.56816107 -129.21557617 288.71850586 C-130.55024294 287.38903982 -131.88466315 286.05932621 -133.21885681 284.72938538 C-136.07940185 281.87873687 -138.94140627 279.02956467 -141.80449486 276.18147087 C-146.33384907 271.67528114 -150.85823567 267.16412597 -155.38166809 262.6519928 C-168.24061389 249.82640044 -181.1037561 237.00503766 -193.97729492 224.1940918 C-201.09704552 217.10887532 -208.21141698 210.01830377 -215.31985646 202.92173868 C-219.81286392 198.43681952 -224.31235804 193.95854522 -228.81674421 189.4850558 C-231.61764979 186.70017484 -234.41221791 183.90900165 -237.20502663 181.11600304 C-238.4988205 179.82462724 -239.79518637 178.53582223 -241.09432983 177.24982834 C-242.87093057 175.49046093 -244.63796277 173.72199198 -246.40299988 171.95103455 C-246.91574264 171.44771243 -247.42848541 170.94439031 -247.95676583 170.425816 C-252.26288863 166.07137723 -255.61865598 161.66940815 -256.5 155.5 C-255.54668527 148.82679687 -251.52048135 144.13045037 -247.015625 139.3359375 C-246.50791565 138.79520599 -246.0002063 138.25447449 -245.47711182 137.69735718 C-237.95515031 129.75288887 -230.18892962 122.04016617 -222.44433594 114.31396484 C-219.73776675 111.61279114 -217.03663104 108.90626571 -214.3359375 106.19921875 C-212.5940708 104.45801235 -210.8518942 102.71711591 -209.109375 100.9765625 C-208.31335876 100.17852203 -207.51734253 99.38048157 -206.69720459 98.55825806 C-202.57697195 94.45508089 -198.37050091 90.53859799 -193.96612549 86.7437439 C-190.44127794 83.61757955 -187.15431033 80.25610142 -183.84375 76.90625 C-183.0971814 76.15589478 -182.35061279 75.40553955 -181.5814209 74.63244629 C-179.21847975 72.2574008 -176.8588263 69.87913183 -174.5 67.5 C-171.38839354 64.36160783 -168.27336245 61.22667255 -165.15625 58.09375 C-164.45705444 57.3862561 -163.75785889 56.67876221 -163.03747559 55.9498291 C-159.1029379 51.99601714 -155.07323674 48.23290034 -150.82336426 44.61901855 C-148.88198211 42.89520846 -147.09870548 41.07065764 -145.3125 39.1875 C-136.43802574 30.22636095 -125.88533801 23.26539804 -115 17 C-114.43087891 16.66758301 -113.86175781 16.33516602 -113.27539062 15.99267578 C-80.08081219 -3.24802187 -37.24459185 -10.76898747 0 0 Z " fill="#FBC01A" transform="translate(708,245)"/>
<path d="M0 0 C1.10794922 0.08314453 1.10794922 0.08314453 2.23828125 0.16796875 C8.7511625 1.88188487 13.42010987 7.25807986 18.01905823 11.88336182 C18.73527861 12.59575665 19.45149899 13.30815149 20.18942302 14.04213405 C22.58230863 16.42472088 24.96800684 18.81437418 27.35375977 21.20410156 C29.07024158 22.91623518 30.78714056 24.62795065 32.50442505 26.33927917 C36.68025221 30.5031067 40.85133617 34.67164755 45.01999468 38.84264907 C48.40970892 42.23414856 51.801189 45.62387247 55.19392204 49.01235199 C55.67735371 49.49518846 56.16078537 49.97802494 56.65886648 50.47549282 C57.64106245 51.456477 58.62325959 52.43746001 59.60545789 53.41844186 C68.81038049 62.61249523 78.00878269 71.81305064 87.20522075 81.01558957 C95.61089015 89.42642705 104.02474092 97.8290252 112.44249547 106.22776607 C121.09415361 114.86003244 129.74022229 123.49786087 138.38031238 132.14170623 C143.22779542 136.99109935 148.0774422 141.83827942 152.93295479 146.67963409 C157.49946631 151.23296453 162.05807107 155.79411484 166.61146927 160.36055946 C168.28220136 162.03365724 169.95548751 163.70420912 171.63152504 165.37199211 C173.92234541 167.65234329 176.20368428 169.94178704 178.48292542 172.23370361 C179.14518444 172.88858835 179.80744347 173.5434731 180.48977095 174.21820283 C186.74867756 180.55034989 191.6875 186.62743337 191.6875 195.8125 C189.27723631 204.24842291 182.63370256 209.95130831 176.52843571 215.93984318 C174.76593443 217.73271407 173.12955496 219.58166735 171.49815369 221.49375916 C167.58675669 225.98931677 163.4349474 230.20572473 159.21704102 234.41235352 C157.991203 235.64082001 157.991203 235.64082001 156.74060059 236.894104 C154.06003185 239.57904517 151.37585579 242.2603456 148.69140625 244.94140625 C146.81470872 246.81877814 144.93815943 248.69629729 143.06175232 250.57395935 C139.13728249 254.50024185 135.21072429 258.42442653 131.28295898 262.34741211 C126.76007116 266.86485906 122.2407967 271.38589682 117.72338158 275.90881592 C113.82521059 279.81154384 109.92507059 283.71229601 106.0233168 287.61144203 C103.70152431 289.93168589 101.38058911 292.25277427 99.06103706 294.57525826 C96.47222882 297.16662072 93.88021118 299.75473114 91.28735352 302.34204102 C90.53230026 303.0991185 89.77724701 303.85619598 88.99931335 304.63621521 C57.02908452 336.48055045 16.49137086 357.83638767 -29.3125 358.1875 C-67.56367148 357.92384512 -102.86556845 342.77395673 -129.82641602 315.6652832 C-156.7170855 287.66706871 -166.86847814 249.91375379 -166.52734375 211.95703125 C-166.33792488 203.03081391 -165.28954328 194.51071205 -163.3125 185.8125 C-163.14621094 185.07418945 -162.97992188 184.33587891 -162.80859375 183.57519531 C-154.37625868 147.51915518 -133.73773878 121.23193302 -108.125 95.5 C-107.28138916 94.65163574 -106.43777832 93.80327148 -105.56860352 92.92919922 C-101.96260347 89.33275852 -98.35635624 85.79391859 -94.48046875 82.48828125 C-88.60485655 77.4378583 -83.25354858 71.82097969 -77.8125 66.3125 C-65.50942616 53.85695372 -65.50942616 53.85695372 -59.21679688 48.49414062 C-55.40025394 45.12383963 -51.88065917 41.44154926 -48.3125 37.8125 C-43.44663891 32.86360374 -38.54247756 28.08575734 -33.27734375 23.56347656 C-29.06580851 19.81035395 -25.21095402 15.67123613 -21.3125 11.59765625 C-15.51435589 5.67494264 -8.83369537 -0.80861115 0 0 Z M1.8125 45.875 C0.94109375 46.69871094 0.0696875 47.52242188 -0.828125 48.37109375 C-3.40556554 50.90395591 -5.96814639 53.44870771 -8.49789715 56.02918816 C-10.28937186 57.78977068 -12.14173931 59.42686037 -14.04927063 61.06033325 C-18.15525412 64.63319247 -22.04359091 68.38248677 -25.89916992 72.22216797 C-26.96687622 73.28001747 -26.96687622 73.28001747 -28.05615234 74.35923767 C-30.38797147 76.67150803 -32.71590426 78.98763262 -35.04296875 81.3046875 C-35.84684839 82.10449162 -36.65072803 82.90429573 -37.47896767 83.72833633 C-41.73740253 87.96598433 -45.99260157 92.20685237 -50.24536133 96.45019531 C-54.59592594 100.78973739 -58.95803686 105.1174742 -63.32293224 109.44259453 C-66.71444966 112.80772556 -70.09682077 116.18194333 -73.47695351 119.55850601 C-75.07882356 121.15556342 -76.6840152 122.74929757 -78.29283714 124.33935165 C-103.97967665 149.74515714 -123.68217082 178.80718094 -124.6875 216.125 C-123.91752083 246.37876495 -113.43499379 271.51188105 -91.625 292.75390625 C-87.77595285 296.18033842 -83.6369708 299.02382257 -79.3125 301.8125 C-78.56742188 302.32554687 -77.82234375 302.83859375 -77.0546875 303.3671875 C-55.62396545 317.38796498 -28.15034208 319.68808454 -3.55078125 314.78125 C28.02967376 307.85087583 51.32400835 287.59171196 73.4609375 265.19921875 C74.72161471 263.93224434 75.98282642 262.66580156 77.24453735 261.39985657 C80.52374123 258.10752443 83.79728376 254.80962892 87.0690918 251.50994873 C92.32261218 246.21283667 97.5832254 240.92279054 102.84706497 235.63593483 C104.66625064 233.8066536 106.48191876 231.97393695 108.29721069 230.14079285 C113.37350865 225.02751567 118.46093237 219.99037912 123.94915771 215.31361389 C126.86377562 212.79674856 129.59926313 210.10195149 132.33984375 207.3984375 C132.92544571 206.82090729 133.51104767 206.24337708 134.11439514 205.64834595 C135.33493704 204.44148842 136.55404089 203.23317486 137.77172852 202.0234375 C139.01536628 200.79143171 140.26348617 199.5639352 141.51586914 198.34082031 C143.34202576 196.5571877 145.15469906 194.76080077 146.96484375 192.9609375 C147.80534523 192.14669815 147.80534523 192.14669815 148.66282654 191.31600952 C151.72283876 188.23860287 153.41178896 186.18125089 153.6875 181.8125 C152.56996997 179.753738 152.56996997 179.753738 150.73291016 177.99121094 C150.08171204 177.30281128 149.43051392 176.61441162 148.75958252 175.90515137 C148.07579529 175.21457642 147.39200806 174.52400146 146.6875 173.8125 C146.06832703 173.1692981 145.44915405 172.52609619 144.81121826 171.86340332 C142.87998426 169.87368531 140.92458521 167.91084024 138.9609375 165.953125 C137.89487778 164.88563019 137.89487778 164.88563019 136.80728149 163.79656982 C135.3177355 162.30634852 133.82694681 160.81736838 132.33496094 159.32958984 C130.05808349 157.05809393 127.78662612 154.78127558 125.515625 152.50390625 C124.06021655 151.04915823 122.60449813 149.59472025 121.1484375 148.140625 C120.47436859 147.46453186 119.80029968 146.78843872 119.10580444 146.09185791 C115.77210093 142.7746326 112.41562177 139.69291331 108.6875 136.8125 C107.67384207 135.71847533 106.69343943 134.59262528 105.75 133.4375 C98.33156484 124.76639048 90.05418476 116.67967631 81.34375 109.31640625 C79.09585645 107.27527649 77.23813104 104.98280497 75.31417847 102.64070129 C73.70738909 100.83485307 72.0429764 99.33543923 70.19189453 97.78393555 C65.26902375 93.52807277 60.70708368 88.93038192 56.13564682 84.30524635 C54.58196893 82.73391246 53.02454695 81.16637554 51.46609497 79.59977722 C47.04154796 75.15099786 42.62285006 70.69644188 38.20849609 66.23754883 C35.49328894 63.49546811 32.77315434 60.75835468 30.04999161 58.02417564 C29.02031475 56.98832505 27.9925345 55.95058532 26.96676254 54.91086769 C25.53176271 53.456512 24.09057718 52.00855155 22.64794922 50.56176758 C21.42505692 49.32768913 21.42505692 49.32768913 20.17745972 48.06867981 C16.85073095 45.05429438 13.59261155 42.18599451 9.1171875 41.30859375 C5.77349455 42.00206062 4.26805349 43.52535696 1.8125 45.875 Z " fill="#101010" transform="translate(421.3125,432.1875)"/>
<path d="M0 0 C0.66402832 0.18191895 1.32805664 0.36383789 2.01220703 0.55126953 C32.22509542 8.97174826 59.40529357 29.6302813 75.19921875 56.73828125 C75.79347656 57.81464844 76.38773438 58.89101563 77 60 C77.60457031 61.08667969 78.20914062 62.17335938 78.83203125 63.29296875 C96.90757245 97.51441822 98.31542792 137.47961359 87.53564453 174.20947266 C75.89244866 211.82433787 52.80153931 239.48921897 25.27587891 266.68823242 C24.76171417 267.19799118 24.24754944 267.70774994 23.71780396 268.23295593 C22.30260266 269.63563906 20.88478126 271.03567726 19.46679688 272.43554688 C16.94984328 274.96252845 16.94984328 274.96252845 14.79882812 277.83007812 C14.20521484 278.54615234 13.61160156 279.26222656 13 280 C12.34 280 11.68 280 11 280 C10.79043167 280.5339035 10.58086334 281.06780701 10.36494446 281.6178894 C8.46380774 284.93576647 5.85008902 287.43636708 3.16088867 290.11376953 C2.56390671 290.71586243 1.96692474 291.31795532 1.35185242 291.93829346 C-0.62096275 293.92499678 -2.60110905 295.90419477 -4.58203125 297.8828125 C-5.95747091 299.26213933 -7.3326865 300.64168963 -8.70768738 302.02145386 C-11.59021532 304.91144223 -14.47658709 307.79752561 -17.36547852 310.68115234 C-21.06618278 314.37606044 -24.75539512 318.08221014 -28.44157887 321.79159737 C-31.2785101 324.6432628 -34.12234062 327.4879686 -36.96820641 330.33071518 C-38.33129647 331.69431855 -39.69202515 333.06028667 -41.05033302 334.42865372 C-42.95070136 336.34136338 -44.86037385 338.24428052 -46.77270508 340.14501953 C-47.3313324 340.71129059 -47.88995972 341.27756165 -48.46551514 341.86099243 C-52.84847786 346.18546974 -56.59733405 348.25871898 -62.75 348.5 C-71.9515258 348.19399689 -78.51313251 340.93463222 -84.6328125 334.6953125 C-85.31374969 334.01250214 -85.99468689 333.32969177 -86.69625854 332.62619019 C-88.12315207 331.19262558 -89.54646984 329.75549356 -90.96630859 328.31494141 C-93.11954969 326.13052921 -95.28328642 323.95697827 -97.44921875 321.78515625 C-98.84437428 320.38082826 -100.23892595 318.97590005 -101.6328125 317.5703125 C-102.26841095 316.93046417 -102.9040094 316.29061584 -103.55886841 315.63137817 C-106.44581816 312.69903957 -109.24402148 309.74065222 -111.89836121 306.59568787 C-117.35752214 300.3363347 -123.32614474 294.56816107 -129.21557617 288.71850586 C-130.55024294 287.38903982 -131.88466315 286.05932621 -133.21885681 284.72938538 C-136.07940185 281.87873687 -138.94140627 279.02956467 -141.80449486 276.18147087 C-146.33384907 271.67528114 -150.85823567 267.16412597 -155.38166809 262.6519928 C-168.24061389 249.82640044 -181.1037561 237.00503766 -193.97729492 224.1940918 C-201.09704552 217.10887532 -208.21141698 210.01830377 -215.31985646 202.92173868 C-219.81286392 198.43681952 -224.31235804 193.95854522 -228.81674421 189.4850558 C-231.61764979 186.70017484 -234.41221791 183.90900165 -237.20502663 181.11600304 C-238.4988205 179.82462724 -239.79518637 178.53582223 -241.09432983 177.24982834 C-242.87093057 175.49046093 -244.63796277 173.72199198 -246.40299988 171.95103455 C-246.91574264 171.44771243 -247.42848541 170.94439031 -247.95676583 170.425816 C-252.26288863 166.07137723 -255.61865598 161.66940815 -256.5 155.5 C-255.54668527 148.82679687 -251.52048135 144.13045037 -247.015625 139.3359375 C-246.50791565 138.79520599 -246.0002063 138.25447449 -245.47711182 137.69735718 C-237.95515031 129.75288887 -230.18892962 122.04016617 -222.44433594 114.31396484 C-219.73776675 111.61279114 -217.03663104 108.90626571 -214.3359375 106.19921875 C-212.5940708 104.45801235 -210.8518942 102.71711591 -209.109375 100.9765625 C-208.31335876 100.17852203 -207.51734253 99.38048157 -206.69720459 98.55825806 C-202.57697195 94.45508089 -198.37050091 90.53859799 -193.96612549 86.7437439 C-190.44127794 83.61757955 -187.15431033 80.25610142 -183.84375 76.90625 C-183.0971814 76.15589478 -182.35061279 75.40553955 -181.5814209 74.63244629 C-179.21847975 72.2574008 -176.8588263 69.87913183 -174.5 67.5 C-171.38839354 64.36160783 -168.27336245 61.22667255 -165.15625 58.09375 C-164.45705444 57.3862561 -163.75785889 56.67876221 -163.03747559 55.9498291 C-159.1029379 51.99601714 -155.07323674 48.23290034 -150.82336426 44.61901855 C-148.88198211 42.89520846 -147.09870548 41.07065764 -145.3125 39.1875 C-136.43802574 30.22636095 -125.88533801 23.26539804 -115 17 C-114.43087891 16.66758301 -113.86175781 16.33516602 -113.27539062 15.99267578 C-80.08081219 -3.24802187 -37.24459185 -10.76898747 0 0 Z M-130.6796875 80.69848633 C-133.36955465 83.41045129 -136.09067033 86.02525899 -139 88.5 C-142.50981964 91.49690237 -145.79474377 94.68189157 -149.0625 97.9375 C-149.54525391 98.41574219 -150.02800781 98.89398438 -150.52539062 99.38671875 C-153.12357273 101.99541981 -155.58504874 104.66901836 -157.96508789 107.47827148 C-162.38297335 112.54289515 -167.1717444 117.22233281 -171.96934128 121.92224503 C-174.190913 124.10117618 -176.40268416 126.28994956 -178.61519814 128.47807121 C-182.71770533 132.53508931 -186.82419136 136.58788928 -190.94677734 140.62451172 C-193.83156138 143.44988657 -196.70396461 146.28734084 -199.56859207 149.13314438 C-200.65732577 150.21015955 -201.75057351 151.28263193 -202.84843063 152.35034561 C-204.3799629 153.84081933 -205.89519955 155.34622239 -207.40771484 156.85595703 C-208.27262543 157.70674835 -209.13753601 158.55753967 -210.02865601 159.43411255 C-212.47597763 162.61952913 -213.28027601 163.95411277 -213 168 C-208.33215621 176.44170459 -200.05976542 183.26495975 -193.29101562 190.06298828 C-192.01035401 191.35620317 -190.73006535 192.64978749 -189.45011902 193.94371033 C-185.27592442 198.15964789 -181.09136223 202.36521735 -176.90625 206.5703125 C-175.46163008 208.02303563 -174.01707578 209.47582401 -172.57258606 210.92867661 C-165.79407337 217.74519217 -159.01082057 224.55694638 -152.22164488 231.36284173 C-144.39139188 239.21270166 -136.57803626 247.078899 -128.77835512 254.95913327 C-122.73866865 261.05904571 -116.68379956 267.14361424 -110.61724424 273.21680439 C-106.99717457 276.84157946 -103.38404429 280.47269207 -99.78681946 284.12015152 C-96.4092893 287.54409551 -93.01339062 290.9486692 -89.6022892 294.33915901 C-88.3532967 295.58715749 -87.1111462 296.84204625 -85.87640953 298.10415077 C-84.19144758 299.82435611 -82.48372651 301.51816635 -80.76794434 303.20755005 C-80.04112009 303.96728203 -80.04112009 303.96728203 -79.29961252 304.74236214 C-76.50035851 307.43851349 -75.27117915 308.0041973 -71.32466888 307.94311333 C-67.21339457 306.77686257 -64.96715631 304.71726635 -62.12890625 301.6796875 C-61.60288315 301.14280304 -61.07686005 300.60591858 -60.53489685 300.05276489 C-58.86262361 298.34051656 -57.21219839 296.6089825 -55.5625 294.875 C-53.91229516 293.16687197 -52.25775725 291.46309704 -50.60081482 289.76150513 C-49.57516163 288.70540232 -48.55397047 287.64493741 -47.53846741 286.57907104 C-44.8879652 283.82061161 -42.16180112 281.2381303 -39.25976562 278.74438477 C-34.21922739 274.38824338 -29.54340551 269.68680646 -24.83984375 264.97265625 C-23.8817014 264.01518975 -22.92341084 263.05787155 -21.96498108 262.10069275 C-19.96908713 260.10626253 -17.97498548 258.11006259 -15.98217773 256.11254883 C-13.44858137 253.57325601 -10.91052017 251.03848097 -8.37108517 248.50502872 C-6.39509297 246.53267816 -4.42152321 244.55791737 -2.44864082 242.58245659 C-1.06589401 241.19873372 0.3188393 239.81699686 1.70362854 238.43531799 C6.15905075 233.96346141 10.4807693 229.44075328 14.57522583 224.63465881 C16.52099201 222.40226024 18.65273825 220.39862685 20.8125 218.375 C35.8054324 203.45021729 45.40603508 184.22684484 51 164 C51.3403125 162.79988281 51.680625 161.59976563 52.03125 160.36328125 C58.46217774 132.82342868 54.52581961 104.0561501 39.9375 79.94140625 C25.79242902 58.46713518 4.62706538 44.50872056 -20.2734375 38.76171875 C-63.6530252 29.89482189 -101.01563795 50.67574774 -130.6796875 80.69848633 Z " fill="#101010" transform="translate(708,245)"/>
<path d="M0 0 C5.14786066 1.43464969 8.08219954 4.35157772 11.8125 8.0625 C5.53346109 15.69916895 -1.36331938 22.80185048 -8.86572266 29.24249268 C-13.18275788 33.00938409 -17.25911121 36.9793898 -21.3125 41.02636719 C-22.08110352 41.7900058 -22.84970703 42.55364441 -23.64160156 43.34042358 C-26.15965869 45.8439878 -28.67390763 48.35132863 -31.1875 50.859375 C-32.0527832 51.72183083 -32.91806641 52.58428665 -33.80957031 53.4728775 C-38.38617647 58.03454548 -42.95993782 62.59904268 -47.53125 67.16601562 C-52.23155586 71.86083617 -56.94106746 76.54630253 -61.65283203 81.2296257 C-65.2954882 84.85358415 -68.93134727 88.48430522 -72.56542969 92.11685944 C-74.29793365 93.8463539 -76.03291784 95.5733678 -77.77050781 97.29775238 C-90.51261174 109.8093965 -90.51261174 109.8093965 -101.1875 124.0625 C-101.80729988 125.03829262 -101.80729988 125.03829262 -102.43962097 126.03379822 C-115.47909188 147.56247701 -119.89848069 173.36020279 -113.95581055 197.86938477 C-108.23845439 219.51835969 -95.34413211 236.81136722 -76.04980469 248.05078125 C-71.29757539 250.63248526 -66.34827544 252.48691764 -61.1875 254.0625 C-60.39674072 254.31926514 -59.60598145 254.57603027 -58.79125977 254.84057617 C-51.65902518 257.00846184 -45.05756954 257.56948924 -37.625 257.5 C-36.4911084 257.49315186 -35.3572168 257.48630371 -34.18896484 257.47924805 C-19.96765586 257.21059873 -6.99471381 254.34667091 5.8125 248.0625 C7.17568359 247.40121094 7.17568359 247.40121094 8.56640625 246.7265625 C19.07813791 241.31369357 27.87840727 234.10557873 36.41772461 226.02929688 C37.1514199 225.33665489 37.88511518 224.64401291 38.64104366 223.93038177 C48.10083951 214.9507219 57.29514036 205.70424167 66.50390625 196.46875 C68.42966667 194.54055249 70.35619375 192.61312166 72.28269958 190.68566895 C76.78552912 186.17976938 81.28581087 181.67133462 85.78510946 177.16190958 C90.92001037 172.01571052 96.05785698 166.87245647 101.19591439 161.72940922 C111.73798399 151.17697362 122.27647444 140.62097053 132.8125 130.0625 C136.07671345 131.6086617 138.18244819 133.1856219 140.625 135.875 C141.25019531 136.54144531 141.87539063 137.20789063 142.51953125 137.89453125 C143.8125 140.0625 143.8125 140.0625 143.58180237 142.48013306 C142.73763709 145.31379718 141.87819014 146.48859003 139.79663086 148.54833984 C139.16184311 149.18605316 138.52705536 149.82376648 137.87303162 150.48080444 C137.18145462 151.15487335 136.48987762 151.82894226 135.77734375 152.5234375 C135.0652626 153.23223053 134.35318146 153.94102356 133.61952209 154.67129517 C131.33887485 156.93619899 129.04446228 159.18660194 126.75 161.4375 C125.23156035 162.9444449 123.71397249 164.45224861 122.19726562 165.9609375 C120.72472129 167.42004122 119.25143671 168.87839833 117.77734375 170.3359375 C117.09993637 171.00595795 116.42252899 171.67597839 115.72459412 172.36630249 C112.59167101 175.4380067 109.42896202 178.42201121 106.09130859 181.27050781 C100.83920065 185.81634246 96.00017448 190.77982693 91.11710167 195.7132988 C89.34781315 197.50023107 87.57478877 199.283381 85.80073547 201.06558228 C80.76228204 206.12826292 75.72952957 211.19658163 70.70141602 216.26953125 C67.61020541 219.38778215 64.51392887 222.50093143 61.41465187 225.61116409 C60.24674392 226.78520759 59.08072572 227.96113457 57.91678429 229.13911057 C32.59050137 254.76805447 2.90362912 274.71279162 -34.23901367 275.30419922 C-62.66238361 275.39816077 -86.13320324 265.38796136 -106.75 245.875 C-125.44955378 226.6147894 -133.78935299 200.98623476 -134.625 174.5625 C-133.92883527 147.76015798 -123.02365613 120.93550112 -105.1875 101.0625 C-104.65097305 100.44601089 -104.11444611 99.82952179 -103.56166077 99.1943512 C-95.88249087 90.4796097 -87.61822078 82.34835305 -79.40234375 74.14453125 C-77.77512789 72.51664043 -76.14806039 70.8886013 -74.52113342 69.26042175 C-71.12630582 65.86412707 -67.72969468 62.46962918 -64.33178711 59.07641602 C-59.99222017 54.74255488 -55.65717119 50.40420667 -51.32344723 46.06450367 C-47.96997717 42.707409 -44.61411535 39.35271334 -41.25753975 35.99872398 C-39.65853192 34.40037969 -38.06025676 32.80130204 -36.46275139 31.20145607 C-34.2262049 28.96235071 -31.98644462 26.72650828 -29.74584961 24.49145508 C-29.09679657 23.84037781 -28.44774353 23.18930054 -27.77902222 22.51849365 C-23.95008262 18.70695056 -20.00656158 15.08464669 -15.90866947 11.56336498 C-13.79491689 9.72016634 -11.82503469 7.76463211 -9.875 5.75 C-4.38910214 0.08606083 -4.38910214 0.08606083 0 0 Z " fill="#FDFDFC" transform="translate(431.1875,473.9375)"/>
<path d="M0 0 C1.11503906 0.56460937 2.23007812 1.12921875 3.37890625 1.7109375 C25.0834343 13.17109601 41.58008717 32.08959466 49.15625 55.5859375 C58.39116608 87.05061585 52.96062471 120.21995506 37.65820312 148.77929688 C31.00194107 160.66001421 22.10748619 170.24131839 12.359375 179.6484375 C10.08570731 181.86743882 7.97408284 184.15446846 5.91674805 186.57446289 C1.49152767 191.65982633 -3.25702227 196.40054939 -8.02734375 201.16015625 C-8.98481025 202.1182986 -9.94212845 203.07658916 -10.89930725 204.03501892 C-12.89373747 206.03091287 -14.88993741 208.02501452 -16.88745117 210.01782227 C-19.42674399 212.55141863 -21.96151903 215.08947983 -24.49497128 217.62891483 C-26.46732184 219.60490703 -28.44208263 221.57847679 -30.41754341 223.55135918 C-31.80126628 224.93410599 -33.18300314 226.3188393 -34.56468201 227.70362854 C-39.01140478 232.13400931 -43.52257209 236.40412972 -48.28343201 240.49467468 C-50.5490843 242.48151341 -52.62552478 244.61237137 -54.69140625 246.8046875 C-55.49126953 247.63484375 -56.29113281 248.465 -57.11523438 249.3203125 C-58.7603481 251.03763792 -60.39565601 252.76440562 -62.02148438 254.5 C-68.77748091 261.45774946 -68.77748091 261.45774946 -72.78125 262.34765625 C-76.93794499 261.89869283 -78.18535785 260.65336733 -80.9375 257.5625 C-81.70964844 256.71816406 -82.48179687 255.87382813 -83.27734375 255.00390625 C-83.84582031 254.34261719 -84.41429687 253.68132812 -85 253 C-82.72733912 249.87509129 -80.29641643 247.31578947 -77.36579895 244.82739258 C-72.9456757 240.99902583 -68.78845668 236.95020608 -64.6472168 232.82421875 C-63.85417145 232.0377446 -63.0611261 231.25127045 -62.24404907 230.44096375 C-59.64288114 227.85936636 -57.04561828 225.27389265 -54.44921875 222.6875 C-53.55458231 221.79693909 -52.65994587 220.90637817 -51.73819923 219.98883057 C-47.48834904 215.75763871 -43.24054633 211.52441641 -38.99583119 207.28807449 C-34.13863301 202.44062294 -29.27328537 197.60155046 -24.40076131 192.7695055 C-20.14614841 188.54899882 -15.90286193 184.31727493 -11.66324806 180.08169556 C-9.87550511 178.29878338 -8.08442256 176.51921264 -6.28977013 174.74325562 C6.24329943 162.33266673 18.69943526 149.80260999 25.9375 133.4375 C26.30174072 132.63940918 26.66598145 131.84131836 27.04125977 131.01904297 C30.08724516 124.1695214 32.39604982 117.33740747 34 110 C34.22300781 108.99453125 34.44601562 107.9890625 34.67578125 106.953125 C38.96763165 83.94647118 35.20357733 61.37263764 22.7265625 41.44140625 C10.81792945 24.60227581 -5.96088662 13.19736332 -26.2890625 9.3828125 C-53.67772666 6.55745557 -79.58421534 13.02155253 -101.4375 30.0625 C-104.88468632 32.94171598 -108.09774365 35.97506765 -111.21046448 39.21043396 C-112.86947114 40.86946892 -114.57653343 42.37339584 -116.37084961 43.88305664 C-122.69144763 49.37989993 -128.52702593 55.38327391 -134.44140625 61.30859375 C-135.7358519 62.60236434 -137.03044584 63.89598657 -138.32518005 65.18946838 C-141.02725151 67.89007239 -143.72752381 70.59245893 -146.42651367 73.29614258 C-149.8681199 76.74344549 -153.31419705 80.1862385 -156.76164341 83.62769985 C-159.43247711 86.29490212 -162.10090244 88.96450368 -164.76862907 91.63481331 C-166.03762583 92.9044722 -167.3073521 94.17340243 -168.57785225 95.44155693 C-177.34816525 104.1983739 -177.34816525 104.1983739 -185.63465881 113.41004944 C-187.4624389 115.53851374 -189.41139852 117.52448845 -191.40234375 119.5 C-192.14677734 120.24121094 -192.89121094 120.98242188 -193.65820312 121.74609375 C-194.41037109 122.48988281 -195.16253906 123.23367188 -195.9375 124 C-196.71673828 124.77472656 -197.49597656 125.54945313 -198.29882812 126.34765625 C-200.1969242 128.23410757 -202.09733149 130.11816245 -204 132 C-207.23078289 130.47698217 -209.09767551 129.08585468 -211.3125 126.25 C-211.84488281 125.59515625 -212.37726563 124.9403125 -212.92578125 124.265625 C-214.44628283 121.05874895 -213.94080177 119.40322932 -213 116 C-211.33727827 113.88775432 -209.77518282 112.14976442 -207.85693359 110.30517578 C-207.32183167 109.77095001 -206.78672974 109.23672424 -206.2354126 108.68630981 C-204.46786588 106.92732547 -202.68338721 105.18661928 -200.8984375 103.4453125 C-199.6599385 102.21869308 -198.42262062 100.99088005 -197.18643188 99.76193237 C-193.92831987 96.52855875 -190.65594138 93.31002505 -187.37988281 90.09484863 C-182.78357336 85.57885706 -178.20661237 81.04324764 -173.62783813 76.50949097 C-171.19222138 74.09787725 -168.751198 71.69195673 -166.30551147 69.29055786 C-161.14818838 64.21485227 -156.04585564 59.14297502 -151.37342834 53.6078949 C-149.07410779 50.91604294 -146.57616629 48.427678 -144.0625 45.9375 C-143.28120728 45.15910767 -143.28120728 45.15910767 -142.48413086 44.36499023 C-139.16045428 41.07834053 -135.73363908 37.97574725 -132.1640625 34.95703125 C-129.86142654 32.87468357 -127.72926147 30.67742028 -125.5769043 28.44213867 C-94.15572397 -3.98976019 -42.42022036 -21.76291141 0 0 Z " fill="#FDFDFC" transform="translate(709,291)"/>
<path d="M0 0 C0.6638269 -0.00043808 1.32765381 -0.00087616 2.01159668 -0.00132751 C4.19781276 0.00075646 6.38325444 0.02406762 8.56933594 0.04760742 C10.08819154 0.0532048 11.60705257 0.05747423 13.12591553 0.06047058 C17.11762526 0.07190827 21.10900594 0.1013659 25.10058594 0.13458252 C29.17606149 0.16530677 33.25159037 0.17898093 37.32714844 0.1940918 C45.3194867 0.22623689 53.31155785 0.27741993 61.30371094 0.34057617 C60.97371094 1.00057617 60.64371094 1.66057617 60.30371094 2.34057617 C36.62909315 3.19823648 12.99293495 3.47216048 -10.69628906 3.34057617 C-7.21964444 0.08985106 -4.67629891 -0.02597944 0 0 Z " fill="#161516" transform="translate(378.6962890625,833.659423828125)"/>
<path d="M0 0 C0.66 0.33 1.32 0.66 2 1 C-0.18101677 3.38102267 -2.37098779 5.75363725 -4.5625 8.125 C-5.17158203 8.79015625 -5.78066406 9.4553125 -6.40820312 10.140625 C-10.37816402 14.42566216 -14.49616894 18.27868785 -19 22 C-19.66 21.67 -20.32 21.34 -21 21 C-14.07 14.07 -7.14 7.14 0 0 Z " fill="#201F20" transform="translate(508,337)"/>
<path d="M0 0 C5.57522124 1.36283186 5.57522124 1.36283186 7.75 4.625 C8.1625 5.40875 8.575 6.1925 9 7 C9.66 7 10.32 7 11 7 C11.37125 7.680625 11.7425 8.36125 12.125 9.0625 C14.38686719 12.60609192 17.11420684 14.81532844 20.35546875 17.44921875 C20.89816406 17.96097656 21.44085938 18.47273437 22 19 C22 19.66 22 20.32 22 21 C22.66 21.33 23.32 21.66 24 22 C23.01 22 22.02 22 21 22 C21 21.34 21 20.68 21 20 C20.42475586 19.75000244 19.84951172 19.50000488 19.25683594 19.24243164 C16.68573601 17.82699162 14.95867301 16.20143436 12.890625 14.12109375 C12.13652344 13.36505859 11.38242187 12.60902344 10.60546875 11.83007812 C9.82816406 11.04052734 9.05085938 10.25097656 8.25 9.4375 C7.45722656 8.64408203 6.66445313 7.85066406 5.84765625 7.03320312 C0 1.14025522 0 1.14025522 0 0 Z " fill="#130E11" transform="translate(474,513)"/>
<path d="M0 0 C0.33 0 0.66 0 1 0 C3.29612756 18.82004556 3.29612756 18.82004556 3 28 C2.01 28 1.02 28 0 28 C0 18.76 0 9.52 0 0 Z " fill="#1C1C1C" transform="translate(255,637)"/>
<path d="M0 0 C0 0.66 0 1.32 0 2 C-1.96937661 3.62356346 -3.93345148 5.13559566 -6 6.625 C-6.85851562 7.25535156 -6.85851562 7.25535156 -7.734375 7.8984375 C-9.15203933 8.93805801 -10.57549262 9.96977591 -12 11 C-12 10.01 -12 9.02 -12 8 C-9.625 5.9375 -9.625 5.9375 -7 4 C-6.34 3.34 -5.68 2.68 -5 2 C-2 0 -2 0 0 0 Z " fill="#181818" transform="translate(886,898)"/>
<path d="M0 0 C0.99 0 1.98 0 3 0 C3.33 3.63 3.66 7.26 4 11 C3.01 11 2.02 11 1 11 C0.67 7.37 0.34 3.74 0 0 Z " fill="#1E1E1E" transform="translate(256,668)"/>
<path d="M0 0 C2.35333796 4.70667591 2.17102038 6.8693886 2 12 C1.01 12 0.02 12 -1 12 C-0.67 8.04 -0.34 4.08 0 0 Z " fill="#171717" transform="translate(87,217)"/>
<path d="M0 0 C0.33 0.99 0.66 1.98 1 3 C-3.455 6.96 -3.455 6.96 -8 11 C-8.66 10.67 -9.32 10.34 -10 10 C-6.7 6.7 -3.4 3.4 0 0 Z " fill="#FCB50A" transform="translate(384,540)"/>
<path d="M0 0 C2.00943169 4.01886337 2.36963693 5.65676602 2 10 C1.01 11.485 1.01 11.485 0 13 C-0.66 13 -1.32 13 -2 13 C-1.34 8.71 -0.68 4.42 0 0 Z " fill="#1C1C1C" transform="translate(846,404)"/>
<path d="M0 0 C0.66 0.66 1.32 1.32 2 2 C-2.29 3.65 -6.58 5.3 -11 7 C-11 6.34 -11 5.68 -11 5 C-9.68 4.67 -8.36 4.34 -7 4 C-7 3.34 -7 2.68 -7 2 C-4.69 1.34 -2.38 0.68 0 0 Z " fill="#161616" transform="translate(630,287)"/>
<path d="M0 0 C1.485 0.99 1.485 0.99 3 2 C3.51171875 4.6015625 3.51171875 4.6015625 3.6875 7.625 C3.75324219 8.62789062 3.81898437 9.63078125 3.88671875 10.6640625 C3.92410156 11.43492187 3.96148437 12.20578125 4 13 C1.12420019 8.68630028 0 5.19265239 0 0 Z " fill="#1C1C1C" transform="translate(92,824)"/>
<path d="M0 0 C0.66 0.33 1.32 0.66 2 1 C-0.64 3.97 -3.28 6.94 -6 10 C-6.66 9.34 -7.32 8.68 -8 8 C-5.36 5.36 -2.72 2.72 0 0 Z " fill="#222223" transform="translate(665,526)"/>
<path d="M0 0 C0.33 0 0.66 0 1 0 C1.33 2.31 1.66 4.62 2 7 C2.33 7 2.66 7 3 7 C3 8.98 3 10.96 3 13 C2.01 13.33 1.02 13.66 0 14 C0 9.38 0 4.76 0 0 Z " fill="#333233" transform="translate(762,374)"/>
<path d="M0 0 C0.66 0.33 1.32 0.66 2 1 C1.06725891 2.12894876 0.12859878 3.25300876 -0.8125 4.375 C-1.33457031 5.00148438 -1.85664062 5.62796875 -2.39453125 6.2734375 C-4 8 -4 8 -7 10 C-7 7 -7 7 -5.46875 5.17578125 C-4.8190625 4.56089844 -4.169375 3.94601562 -3.5 3.3125 C-2.8503125 2.68988281 -2.200625 2.06726563 -1.53125 1.42578125 C-0.77328125 0.72001953 -0.77328125 0.72001953 0 0 Z " fill="#212222" transform="translate(539,652)"/>
<path d="M0 0 C0.66 0.33 1.32 0.66 2 1 C-0.31 3.64 -2.62 6.28 -5 9 C-5.66 8.34 -6.32 7.68 -7 7 C-4.69 4.69 -2.38 2.38 0 0 Z " fill="#222222" transform="translate(355,487)"/>
<path d="M0 0 C0 3 0 3 -1.42578125 4.640625 C-2.04839844 5.17171875 -2.67101562 5.7028125 -3.3125 6.25 C-4.23482422 7.06210937 -4.23482422 7.06210937 -5.17578125 7.890625 C-5.77777344 8.25671875 -6.37976563 8.6228125 -7 9 C-7.99 8.67 -8.98 8.34 -10 8 C-6.7 5.36 -3.4 2.72 0 0 Z " fill="#0A0B0A" transform="translate(473,717)"/>
<path d="M0 0 C2.45823172 3.68734758 3.01242616 6.69699971 4 11 C3.01 11 2.02 11 1 11 C0.63890458 9.35567294 0.28629924 7.7094792 -0.0625 6.0625 C-0.25972656 5.14597656 -0.45695313 4.22945312 -0.66015625 3.28515625 C-0.77230469 2.53105469 -0.88445313 1.77695313 -1 1 C-0.67 0.67 -0.34 0.34 0 0 Z " fill="#1B1B1B" transform="translate(930,189)"/>
<path d="M0 0 C5.445 1.485 5.445 1.485 11 3 C11 3.33 11 3.66 11 4 C9.741875 4.04125 8.48375 4.0825 7.1875 4.125 C6.47980469 4.14820312 5.77210938 4.17140625 5.04296875 4.1953125 C3 4 3 4 0 2 C0 1.34 0 0.68 0 0 Z " fill="#181819" transform="translate(834,97)"/>
<path d="M0 0 C3.11198065 1.49836105 6.0534615 3.19933758 9 5 C8.67 5.99 8.34 6.98 8 8 C6.66102417 7.04956626 5.32894573 6.08940853 4 5.125 C3.2575 4.59132813 2.515 4.05765625 1.75 3.5078125 C1.1725 3.01023437 0.595 2.51265625 0 2 C0 1.34 0 0.68 0 0 Z " fill="#171817" transform="translate(142,900)"/>
<path d="M0 0 C3.91211733 1.15585285 6.8745041 2.35534962 10 5 C9.01 5.495 9.01 5.495 8 6 C6.0546875 5.22265625 6.0546875 5.22265625 3.875 4.0625 C3.15054688 3.68222656 2.42609375 3.30195312 1.6796875 2.91015625 C1.12539063 2.60980469 0.57109375 2.30945313 0 2 C0 1.34 0 0.68 0 0 Z " fill="#222222" transform="translate(852,104)"/>
<path d="M0 0 C0.66 0.66 1.32 1.32 2 2 C-2.455 3.485 -2.455 3.485 -7 5 C-7 4.01 -7 3.02 -7 2 C-4.69 1.34 -2.38 0.68 0 0 Z " fill="#1B1A1B" transform="translate(846,921)"/>
<path d="M0 0 C1.2380014 3.57644848 0.74926071 6.33694766 0 10 C-1.85776765 6.86501708 -2.20140476 4.62528568 -2 1 C-1.34 0.67 -0.68 0.34 0 0 Z " fill="#171718" transform="translate(937,802)"/>
<path d="M0 0 C3.48133831 1.39253532 4.47886033 2.63176216 6 6 C6.66 6.33 7.32 6.66 8 7 C7.01 7 6.02 7 5 7 C5 6.34 5 5.68 5 5 C4.360625 4.731875 3.72125 4.46375 3.0625 4.1875 C1 3 1 3 0 0 Z " fill="#2A2215" transform="translate(490,528)"/>
<path d="M0 0 C0.99 0 1.98 0 3 0 C3 1.98 3 3.96 3 6 C3.66 6 4.32 6 5 6 C5 6.66 5 7.32 5 8 C4.01 8 3.02 8 2 8 C1.34 5.36 0.68 2.72 0 0 Z " fill="#161616" transform="translate(838,307)"/>
<path d="M0 0 C1.25541557 3.76624671 0.37061958 5.37188934 -1 9 C-1.99 9 -2.98 9 -4 9 C-3.67 7.35 -3.34 5.7 -3 4 C-2.34 4 -1.68 4 -1 4 C-0.67 2.68 -0.34 1.36 0 0 Z " fill="#161616" transform="translate(303,612)"/>
<path d="M0 0 C0.66 0.33 1.32 0.66 2 1 C1.67 3.31 1.34 5.62 1 8 C0.01 8 -0.98 8 -2 8 C-1.34 5.36 -0.68 2.72 0 0 Z " fill="#171717" transform="translate(263,600)"/>
<path d="M0 0 C3.36720387 1.39332574 4.9859524 2.9789286 7 6 C4 6 4 6 1.8125 4.125 C0 2 0 2 0 0 Z " fill="#212222" transform="translate(585,592)"/>
<path d="M0 0 C3.63 0.66 7.26 1.32 11 2 C11 2.33 11 2.66 11 3 C7.7 3 4.4 3 1 3 C0.67 2.01 0.34 1.02 0 0 Z " fill="#1D1C1C" transform="translate(819,93)"/>
<path d="M0 0 C0.33 0.99 0.66 1.98 1 3 C-1.31 3.33 -3.62 3.66 -6 4 C-6 3.01 -6 2.02 -6 1 C-3.92446352 0.4465236 -2.15634036 0 0 0 Z " fill="#1A1A1A" transform="translate(822,928)"/>
<path d="M0 0 C0 3.90838866 -1.50567876 5.11594107 -4 8 C-4.99 7.67 -5.98 7.34 -7 7 C-4.69 4.69 -2.38 2.38 0 0 Z " fill="#373737" transform="translate(706,605)"/>
<path d="M0 0 C3.36720387 1.39332574 4.9859524 2.9789286 7 6 C3.75728494 5.4409112 2.06942576 4.5867822 0 2 C0 1.34 0 0.68 0 0 Z " fill="#262626" transform="translate(592,599)"/>
<path d="M0 0 C1.65 0 3.3 0 5 0 C5.33 1.32 5.66 2.64 6 4 C4.125 3.6875 4.125 3.6875 2 3 C1.34 2.01 0.68 1.02 0 0 Z " fill="#FCD01D" transform="translate(620,539)"/>
<path d="M0 0 C0.66 0.33 1.32 0.66 2 1 C0.52307692 5.67692308 0.52307692 5.67692308 -2.125 7.3125 C-3.053125 7.6528125 -3.053125 7.6528125 -4 8 C-2.87548273 5.0280615 -1.77706209 2.66559313 0 0 Z " fill="#060606" transform="translate(743,444)"/>
<path d="M0 0 C-0.33 0.99 -0.66 1.98 -1 3 C-2.98 3.33 -4.96 3.66 -7 4 C-7 3.01 -7 2.02 -7 1 C-4.50935112 0.31292445 -2.62113708 0 0 0 Z " fill="#191A1A" transform="translate(203,94)"/>
</svg>
